<svg width="295" height="61" viewBox="0 0 295 61" fill="none" xmlns="http://www.w3.org/2000/svg">
<g filter="url(#filter0_d_152_222)">
<mask id="mask0_152_222" style="mask-type:luminance" maskUnits="userSpaceOnUse" x="-52" y="0" width="342" height="53">
<path d="M-52 0H290V53H-52V0Z" fill="white"/>
</mask>
<g mask="url(#mask0_152_222)">
<path d="M128.888 0C129.563 0.291693 130.454 0.165056 131.25 0.17217C138.492 0.239046 145.741 0.22624 152.968 0.377067C161.805 0.563466 170.653 0.576273 179.482 0.731368C189.305 0.903538 199.12 1.13262 208.942 1.29626C214.987 1.39728 221.05 1.35317 227.076 1.59507C234.434 1.8896 241.841 1.94225 249.188 2.28232C251.736 2.40042 254.353 2.3492 256.934 2.30224C259.379 2.25671 261.759 2.47157 264.176 2.49291C264.822 2.4986 265.402 2.55979 265.592 2.83868C265.778 3.11756 265.285 3.28262 264.818 3.4306C263.343 3.89589 261.464 3.81194 259.81 3.8532C255.313 3.9713 250.878 4.30284 246.356 4.35406C243.071 4.39105 239.804 4.66425 236.132 4.8535C240.402 5.30028 244.414 5.11104 248.33 5.32163C253.105 5.57917 257.945 5.63751 262.705 5.97758C264.482 6.10564 266.3 6.13126 268.085 6.24082C268.964 6.29347 270.074 6.36888 270.151 6.79859C270.224 7.22688 269.103 7.27242 268.337 7.31653C265.953 7.45313 263.555 7.62814 261.157 7.63099C255.941 7.63668 250.75 7.71067 245.096 8.09912C254.134 8.65689 262.632 9.31285 271.26 9.61593C271.702 9.633 272.133 9.71411 272.567 9.75964C273.337 9.83932 274.137 9.97023 274.17 10.3018C274.21 10.6746 273.235 10.7599 272.549 10.8154C270.56 10.9748 268.541 11.1683 266.526 11.1896C260.62 11.2451 254.707 11.1953 248.794 11.3632C246.389 11.4315 243.99 11.5112 241.545 11.7076C247.119 12.0747 252.696 12.4148 258.251 12.8189C266.92 13.4521 275.571 14.1194 284.218 14.7967C285.186 14.8735 286.5 14.9532 286.616 15.464C286.737 16.019 285.463 16.1783 284.415 16.3405C282.904 16.5725 281.2 16.6095 279.462 17.0136C282.196 17.1644 284.55 17.301 286.908 17.4248C287.529 17.4575 288.153 17.4888 288.387 17.7549C288.664 18.0736 288.055 18.26 287.543 18.4251C286.846 18.6513 286.076 18.842 285.328 19.0383C285.014 19.1209 284.558 19.1977 284.748 19.3585C284.879 19.4609 285.335 19.5307 285.675 19.5577C286.113 19.5918 286.587 19.5577 287.036 19.579C289.361 19.6801 289.974 20.1283 288.66 20.8696C287.704 21.4103 287.536 21.8215 288.441 22.459C289.682 23.3369 289.321 24.4183 288.817 25.3361C287.602 27.5316 287.522 29.7286 287.602 31.9454C287.664 33.6785 288.562 35.3803 288.733 37.1162C288.931 39.1567 288.514 41.1686 287.883 43.1834C287.671 43.8536 287.379 44.521 287.153 45.1912C286.792 46.2825 286.021 46.5913 283.277 46.8175C281.357 46.974 279.429 47.1604 277.904 47.7979C279.776 47.9843 279.539 48.5663 279.353 49.0685C279.108 49.7387 277.597 50.0233 276.206 50.1884C272.746 50.5967 269.209 50.9155 265.716 51.2769C264.511 51.4021 263.398 51.4562 263.318 52.1818C263.241 52.8648 261.361 52.7894 260.062 52.8406C256.116 52.9972 252.207 52.6756 248.265 52.6628C242.377 52.6443 236.464 52.667 230.62 52.4579C224.926 52.253 219.243 52.4365 213.574 52.3028C206.533 52.1392 199.459 52.2715 192.436 52.0936C185.297 51.9129 178.179 52.0538 171.061 51.9584C162.736 51.846 154.413 51.7322 146.095 51.597C140.025 51.4974 133.962 51.3708 127.899 51.2456C109.112 50.8628 90.3102 51.1417 71.5158 51.0947C68.5848 51.0862 65.6355 51.2954 62.6789 51.2456C58.3755 51.1716 54.0574 51.0748 49.9839 50.4886C48.5165 50.278 47.3047 50.5384 45.9761 50.5469C36.6428 50.6053 27.324 50.3449 17.9944 50.2993C13.7676 50.278 9.50424 50.1613 5.27378 50.1983C-0.500687 50.2481 -6.23135 49.9166 -12.0022 50.002C-13.2067 50.0205 -14.4003 50.0119 -15.6121 50.1101C-16.5867 50.1884 -18.0029 50.1129 -18.2329 49.6405C-18.4993 49.0956 -17.1306 49.0344 -16.1085 48.9391C-13.3235 48.6801 -10.5166 48.4439 -7.74249 48.1622C-6.3664 48.0213 -4.03764 48.0184 -3.88068 47.6143C-3.62152 46.9285 -3.03751 46.1957 -3.50107 45.47C-3.62882 45.2708 -3.80038 45.0659 -3.78578 44.8639C-3.74563 44.4285 -4.28949 44.3161 -5.31152 44.3004C-10.2173 44.2264 -15.0719 43.9788 -19.9083 43.6331C-21.58 43.5136 -23.343 43.6018 -25.0659 43.5932C-26.4639 43.5875 -27.7304 43.4339 -27.9495 42.8306C-28.1794 42.1846 -26.8362 41.9583 -25.5586 41.8417C-24.4928 41.7463 -23.5766 41.5841 -22.2662 41.2512C-24.9564 41.0178 -26.9676 40.4999 -29.373 40.3803C-30.3658 40.3291 -31.4645 40.2224 -31.5667 39.7557C-31.6762 39.2847 -31.0885 38.9631 -29.8293 38.7483C-26.5442 38.182 -22.9671 38.0454 -19.6017 37.6157C-14.6521 36.9796 -9.87415 36.1373 -4.43915 35.7147C-6.00504 35.322 -7.49063 35.2209 -9.03098 35.2337C-15.8713 35.2921 -22.5802 34.9705 -29.2708 34.4127C-31.8259 34.1993 -34.5342 34.2932 -37.1733 34.1808C-40.0751 34.0584 -42.0571 33.1122 -41.422 31.9938C-40.8161 30.9281 -41.4767 30.6164 -44.3932 30.6065C-47.1599 30.5951 -49.6238 30.3276 -51.2517 29.36C-51.2517 29.1822 -51.2517 29.0043 -51.2517 28.825C-50.5253 28.4935 -49.5508 28.2004 -49.12 27.8176C-48.547 27.3082 -47.2147 26.7917 -48.0798 26.1841C-49.8282 24.9576 -49.6639 23.6884 -48.9448 22.3935C-48.6382 21.84 -48.547 21.3164 -48.7404 20.7401C-49.1748 19.4183 -48.1309 18.9672 -44.6049 18.6727C-43.4186 18.5731 -42.9879 18.4379 -43.7106 17.8986C-45.0684 16.8827 -44.426 16.4316 -41.6337 16.0303C-37.3813 15.4185 -33.0304 14.9276 -28.9496 14.1237C-27.5187 13.8419 -27.015 13.5075 -26.5807 12.974C-25.2374 11.3149 -24.4052 9.59031 -22.4853 8.00805C-21.737 7.39194 -21.4632 6.81994 -21.872 6.1341C-22.7152 4.70978 -21.08 3.77352 -17.616 3.57147C-12.4986 3.27408 -7.45048 2.81449 -2.24544 2.722C3.45602 2.62097 9.11733 2.26667 14.7896 2.04043C21.535 1.77293 28.2986 1.541 35.0513 1.29483C43.5378 0.980375 52.0681 0.74702 60.5838 0.569158C71.3808 0.345763 82.1887 0.0853736 93.0222 0.175016C93.745 0.180708 94.5626 0.276042 95.1539 0.00284579C106.385 1.82174e-07 117.642 0 128.888 0Z" fill="#2E4045"/>
</g>
</g>
<path d="M42.3044 34V28.46L42.8844 30.06L36.8044 20H39.5844L44.4644 28.1H42.9044L47.8244 20H50.3844L44.3044 30.06L44.9044 28.46V34H42.3044ZM55.4556 34.14C54.3623 34.14 53.389 33.9067 52.5356 33.44C51.6823 32.96 51.009 32.3067 50.5156 31.48C50.0223 30.6533 49.7756 29.7133 49.7756 28.66C49.7756 27.5933 50.0223 26.6533 50.5156 25.84C51.009 25.0133 51.6823 24.3667 52.5356 23.9C53.389 23.4333 54.3623 23.2 55.4556 23.2C56.5623 23.2 57.5423 23.4333 58.3956 23.9C59.2623 24.3667 59.9356 25.0067 60.4156 25.82C60.909 26.6333 61.1556 27.58 61.1556 28.66C61.1556 29.7133 60.909 30.6533 60.4156 31.48C59.9356 32.3067 59.2623 32.96 58.3956 33.44C57.5423 33.9067 56.5623 34.14 55.4556 34.14ZM55.4556 32C56.069 32 56.6156 31.8667 57.0956 31.6C57.5756 31.3333 57.949 30.9467 58.2156 30.44C58.4956 29.9333 58.6356 29.34 58.6356 28.66C58.6356 27.9667 58.4956 27.3733 58.2156 26.88C57.949 26.3733 57.5756 25.9867 57.0956 25.72C56.6156 25.4533 56.0756 25.32 55.4756 25.32C54.8623 25.32 54.3156 25.4533 53.8356 25.72C53.369 25.9867 52.9956 26.3733 52.7156 26.88C52.4356 27.3733 52.2956 27.9667 52.2956 28.66C52.2956 29.34 52.4356 29.9333 52.7156 30.44C52.9956 30.9467 53.369 31.3333 53.8356 31.6C54.3156 31.8667 54.8556 32 55.4556 32ZM68.0663 34.14C67.1596 34.14 66.3596 33.9733 65.6663 33.64C64.9729 33.2933 64.4329 32.7733 64.0463 32.08C63.6596 31.3733 63.4663 30.4867 63.4663 29.42V23.32H65.9663V29.08C65.9663 30.04 66.1796 30.76 66.6063 31.24C67.0463 31.7067 67.6663 31.94 68.4663 31.94C69.0529 31.94 69.5596 31.82 69.9863 31.58C70.4263 31.34 70.7663 30.98 71.0063 30.5C71.2596 30.02 71.3863 29.4267 71.3863 28.72V23.32H73.8863V34H71.5063V31.12L71.9263 32C71.5663 32.6933 71.0396 33.2267 70.3463 33.6C69.6529 33.96 68.8929 34.14 68.0663 34.14ZM77.1595 34V23.32H79.5395V26.26L79.2595 25.4C79.5795 24.68 80.0795 24.1333 80.7595 23.76C81.4529 23.3867 82.3129 23.2 83.3395 23.2V25.58C83.2329 25.5533 83.1329 25.54 83.0395 25.54C82.9462 25.5267 82.8529 25.52 82.7595 25.52C81.8129 25.52 81.0595 25.8 80.4995 26.36C79.9395 26.9067 79.6595 27.7267 79.6595 28.82V34H77.1595ZM95.6653 34.2C94.572 34.2 93.5253 34.0467 92.5253 33.74C91.5253 33.42 90.732 33.0133 90.1453 32.52L91.0453 30.5C91.6053 30.94 92.2986 31.3067 93.1253 31.6C93.952 31.8933 94.7986 32.04 95.6653 32.04C96.3986 32.04 96.992 31.96 97.4453 31.8C97.8986 31.64 98.232 31.4267 98.4453 31.16C98.6586 30.88 98.7653 30.5667 98.7653 30.22C98.7653 29.7933 98.612 29.4533 98.3053 29.2C97.9986 28.9333 97.5986 28.7267 97.1053 28.58C96.6253 28.42 96.0853 28.2733 95.4853 28.14C94.8986 28.0067 94.3053 27.8533 93.7053 27.68C93.1186 27.4933 92.5786 27.26 92.0853 26.98C91.6053 26.6867 91.212 26.3 90.9053 25.82C90.5986 25.34 90.4453 24.7267 90.4453 23.98C90.4453 23.22 90.6453 22.5267 91.0453 21.9C91.4586 21.26 92.0786 20.7533 92.9053 20.38C93.7453 19.9933 94.8053 19.8 96.0853 19.8C96.9253 19.8 97.7586 19.9067 98.5853 20.12C99.412 20.3333 100.132 20.64 100.745 21.04L99.9253 23.06C99.2986 22.6867 98.652 22.4133 97.9853 22.24C97.3186 22.0533 96.6786 21.96 96.0653 21.96C95.3453 21.96 94.7586 22.0467 94.3053 22.22C93.8653 22.3933 93.5386 22.62 93.3253 22.9C93.1253 23.18 93.0253 23.5 93.0253 23.86C93.0253 24.2867 93.172 24.6333 93.4653 24.9C93.772 25.1533 94.1653 25.3533 94.6453 25.5C95.1386 25.6467 95.6853 25.7933 96.2853 25.94C96.8853 26.0733 97.4786 26.2267 98.0653 26.4C98.6653 26.5733 99.2053 26.8 99.6853 27.08C100.179 27.36 100.572 27.74 100.865 28.22C101.172 28.7 101.325 29.3067 101.325 30.04C101.325 30.7867 101.119 31.48 100.705 32.12C100.305 32.7467 99.6853 33.2533 98.8453 33.64C98.0053 34.0133 96.9453 34.2 95.6653 34.2ZM108.183 34.14C107.277 34.14 106.477 33.9733 105.783 33.64C105.09 33.2933 104.55 32.7733 104.163 32.08C103.777 31.3733 103.583 30.4867 103.583 29.42V23.32H106.083V29.08C106.083 30.04 106.297 30.76 106.723 31.24C107.163 31.7067 107.783 31.94 108.583 31.94C109.17 31.94 109.677 31.82 110.103 31.58C110.543 31.34 110.883 30.98 111.123 30.5C111.377 30.02 111.503 29.4267 111.503 28.72V23.32H114.003V34H111.623V31.12L112.043 32C111.683 32.6933 111.157 33.2267 110.463 33.6C109.77 33.96 109.01 34.14 108.183 34.14ZM123.197 34.14C122.29 34.14 121.483 33.94 120.777 33.54C120.07 33.14 119.51 32.54 119.097 31.74C118.697 30.9267 118.497 29.9 118.497 28.66C118.497 27.4067 118.703 26.38 119.117 25.58C119.543 24.78 120.11 24.1867 120.817 23.8C121.537 23.4 122.33 23.2 123.197 23.2C124.25 23.2 125.177 23.4267 125.977 23.88C126.79 24.3333 127.43 24.9667 127.897 25.78C128.377 26.5933 128.617 27.5533 128.617 28.66C128.617 29.7667 128.377 30.7267 127.897 31.54C127.43 32.3533 126.79 32.9933 125.977 33.46C125.177 33.9133 124.25 34.14 123.197 34.14ZM117.277 34V19.16H119.777V25.8L119.577 28.64L119.657 31.48V34H117.277ZM122.917 32C123.517 32 124.05 31.8667 124.517 31.6C124.997 31.3333 125.377 30.9467 125.657 30.44C125.937 29.9333 126.077 29.34 126.077 28.66C126.077 27.9667 125.937 27.3733 125.657 26.88C125.377 26.3733 124.997 25.9867 124.517 25.72C124.05 25.4533 123.517 25.32 122.917 25.32C122.317 25.32 121.777 25.4533 121.297 25.72C120.817 25.9867 120.437 26.3733 120.157 26.88C119.877 27.3733 119.737 27.9667 119.737 28.66C119.737 29.34 119.877 29.9333 120.157 30.44C120.437 30.9467 120.817 31.3333 121.297 31.6C121.777 31.8667 122.317 32 122.917 32ZM144.468 23.2C145.321 23.2 146.074 23.3667 146.728 23.7C147.394 24.0333 147.914 24.5467 148.288 25.24C148.661 25.92 148.848 26.8 148.848 27.88V34H146.348V28.2C146.348 27.2533 146.141 26.5467 145.728 26.08C145.314 25.6133 144.721 25.38 143.948 25.38C143.401 25.38 142.914 25.5 142.488 25.74C142.074 25.98 141.748 26.3333 141.508 26.8C141.281 27.2667 141.168 27.86 141.168 28.58V34H138.668V28.2C138.668 27.2533 138.461 26.5467 138.048 26.08C137.634 25.6133 137.041 25.38 136.268 25.38C135.721 25.38 135.234 25.5 134.808 25.74C134.394 25.98 134.068 26.3333 133.828 26.8C133.601 27.2667 133.488 27.86 133.488 28.58V34H130.988V23.32H133.368V26.16L132.948 25.32C133.308 24.6267 133.828 24.1 134.508 23.74C135.201 23.38 135.988 23.2 136.868 23.2C137.868 23.2 138.734 23.4467 139.468 23.94C140.214 24.4333 140.708 25.18 140.948 26.18L139.968 25.84C140.314 25.04 140.888 24.4 141.688 23.92C142.488 23.44 143.414 23.2 144.468 23.2ZM152.042 34V23.32H154.542V34H152.042ZM153.302 21.56C152.836 21.56 152.449 21.4133 152.142 21.12C151.849 20.8267 151.702 20.4733 151.702 20.06C151.702 19.6333 151.849 19.28 152.142 19C152.449 18.7067 152.836 18.56 153.302 18.56C153.769 18.56 154.149 18.7 154.442 18.98C154.749 19.2467 154.902 19.5867 154.902 20C154.902 20.44 154.756 20.8133 154.462 21.12C154.169 21.4133 153.782 21.56 153.302 21.56ZM161.124 34.14C160.23 34.14 159.37 34.0267 158.544 33.8C157.73 33.56 157.084 33.2733 156.604 32.94L157.564 31.04C158.044 31.3467 158.617 31.6 159.284 31.8C159.95 32 160.617 32.1 161.284 32.1C162.07 32.1 162.637 31.9933 162.984 31.78C163.344 31.5667 163.524 31.28 163.524 30.92C163.524 30.6267 163.404 30.4067 163.164 30.26C162.924 30.1 162.61 29.98 162.224 29.9C161.837 29.82 161.404 29.7467 160.924 29.68C160.457 29.6133 159.984 29.5267 159.504 29.42C159.037 29.3 158.61 29.1333 158.224 28.92C157.837 28.6933 157.524 28.3933 157.284 28.02C157.044 27.6467 156.924 27.1533 156.924 26.54C156.924 25.86 157.117 25.2733 157.504 24.78C157.89 24.2733 158.43 23.8867 159.124 23.62C159.83 23.34 160.664 23.2 161.624 23.2C162.344 23.2 163.07 23.28 163.804 23.44C164.537 23.6 165.144 23.8267 165.624 24.12L164.664 26.02C164.157 25.7133 163.644 25.5067 163.124 25.4C162.617 25.28 162.11 25.22 161.604 25.22C160.844 25.22 160.277 25.3333 159.904 25.56C159.544 25.7867 159.364 26.0733 159.364 26.42C159.364 26.74 159.484 26.98 159.724 27.14C159.964 27.3 160.277 27.4267 160.664 27.52C161.05 27.6133 161.477 27.6933 161.944 27.76C162.424 27.8133 162.897 27.9 163.364 28.02C163.83 28.14 164.257 28.3067 164.644 28.52C165.044 28.72 165.364 29.0067 165.604 29.38C165.844 29.7533 165.964 30.24 165.964 30.84C165.964 31.5067 165.764 32.0867 165.364 32.58C164.977 33.0733 164.424 33.46 163.704 33.74C162.984 34.0067 162.124 34.14 161.124 34.14ZM171.417 34.14C170.523 34.14 169.663 34.0267 168.837 33.8C168.023 33.56 167.377 33.2733 166.897 32.94L167.857 31.04C168.337 31.3467 168.91 31.6 169.577 31.8C170.243 32 170.91 32.1 171.577 32.1C172.363 32.1 172.93 31.9933 173.277 31.78C173.637 31.5667 173.817 31.28 173.817 30.92C173.817 30.6267 173.697 30.4067 173.457 30.26C173.217 30.1 172.903 29.98 172.517 29.9C172.13 29.82 171.697 29.7467 171.217 29.68C170.75 29.6133 170.277 29.5267 169.797 29.42C169.33 29.3 168.903 29.1333 168.517 28.92C168.13 28.6933 167.817 28.3933 167.577 28.02C167.337 27.6467 167.217 27.1533 167.217 26.54C167.217 25.86 167.41 25.2733 167.797 24.78C168.183 24.2733 168.723 23.8867 169.417 23.62C170.123 23.34 170.957 23.2 171.917 23.2C172.637 23.2 173.363 23.28 174.097 23.44C174.83 23.6 175.437 23.8267 175.917 24.12L174.957 26.02C174.45 25.7133 173.937 25.5067 173.417 25.4C172.91 25.28 172.403 25.22 171.897 25.22C171.137 25.22 170.57 25.3333 170.197 25.56C169.837 25.7867 169.657 26.0733 169.657 26.42C169.657 26.74 169.777 26.98 170.017 27.14C170.257 27.3 170.57 27.4267 170.957 27.52C171.343 27.6133 171.77 27.6933 172.237 27.76C172.717 27.8133 173.19 27.9 173.657 28.02C174.123 28.14 174.55 28.3067 174.937 28.52C175.337 28.72 175.657 29.0067 175.897 29.38C176.137 29.7533 176.257 30.24 176.257 30.84C176.257 31.5067 176.057 32.0867 175.657 32.58C175.27 33.0733 174.717 33.46 173.997 33.74C173.277 34.0067 172.417 34.14 171.417 34.14ZM178.41 34V23.32H180.91V34H178.41ZM179.67 21.56C179.203 21.56 178.816 21.4133 178.51 21.12C178.216 20.8267 178.07 20.4733 178.07 20.06C178.07 19.6333 178.216 19.28 178.51 19C178.816 18.7067 179.203 18.56 179.67 18.56C180.136 18.56 180.516 18.7 180.81 18.98C181.116 19.2467 181.27 19.5867 181.27 20C181.27 20.44 181.123 20.8133 180.83 21.12C180.536 21.4133 180.15 21.56 179.67 21.56ZM188.991 34.14C187.897 34.14 186.924 33.9067 186.071 33.44C185.217 32.96 184.544 32.3067 184.051 31.48C183.557 30.6533 183.311 29.7133 183.311 28.66C183.311 27.5933 183.557 26.6533 184.051 25.84C184.544 25.0133 185.217 24.3667 186.071 23.9C186.924 23.4333 187.897 23.2 188.991 23.2C190.097 23.2 191.077 23.4333 191.931 23.9C192.797 24.3667 193.471 25.0067 193.951 25.82C194.444 26.6333 194.691 27.58 194.691 28.66C194.691 29.7133 194.444 30.6533 193.951 31.48C193.471 32.3067 192.797 32.96 191.931 33.44C191.077 33.9067 190.097 34.14 188.991 34.14ZM188.991 32C189.604 32 190.151 31.8667 190.631 31.6C191.111 31.3333 191.484 30.9467 191.751 30.44C192.031 29.9333 192.171 29.34 192.171 28.66C192.171 27.9667 192.031 27.3733 191.751 26.88C191.484 26.3733 191.111 25.9867 190.631 25.72C190.151 25.4533 189.611 25.32 189.011 25.32C188.397 25.32 187.851 25.4533 187.371 25.72C186.904 25.9867 186.531 26.3733 186.251 26.88C185.971 27.3733 185.831 27.9667 185.831 28.66C185.831 29.34 185.971 29.9333 186.251 30.44C186.531 30.9467 186.904 31.3333 187.371 31.6C187.851 31.8667 188.391 32 188.991 32ZM203.141 23.2C203.995 23.2 204.755 23.3667 205.421 23.7C206.101 24.0333 206.635 24.5467 207.021 25.24C207.408 25.92 207.601 26.8 207.601 27.88V34H205.101V28.2C205.101 27.2533 204.875 26.5467 204.421 26.08C203.981 25.6133 203.361 25.38 202.561 25.38C201.975 25.38 201.455 25.5 201.001 25.74C200.548 25.98 200.195 26.34 199.941 26.82C199.701 27.2867 199.581 27.88 199.581 28.6V34H197.081V23.32H199.461V26.2L199.041 25.32C199.415 24.64 199.955 24.12 200.661 23.76C201.381 23.3867 202.208 23.2 203.141 23.2ZM211.573 26.52C211.119 26.52 210.733 26.3667 210.413 26.06C210.093 25.74 209.933 25.34 209.933 24.86C209.933 24.3533 210.093 23.9533 210.413 23.66C210.733 23.3533 211.119 23.2 211.573 23.2C212.026 23.2 212.413 23.3533 212.733 23.66C213.053 23.9533 213.213 24.3533 213.213 24.86C213.213 25.34 213.053 25.74 212.733 26.06C212.413 26.3667 212.026 26.52 211.573 26.52ZM211.573 34.14C211.119 34.14 210.733 33.9867 210.413 33.68C210.093 33.36 209.933 32.96 209.933 32.48C209.933 31.9733 210.093 31.5733 210.413 31.28C210.733 30.9733 211.119 30.82 211.573 30.82C212.026 30.82 212.413 30.9733 212.733 31.28C213.053 31.5733 213.213 31.9733 213.213 32.48C213.213 32.96 213.053 33.36 212.733 33.68C212.413 33.9867 212.026 34.14 211.573 34.14Z" fill="white"/>
<defs>
<filter id="filter0_d_152_222" x="-56" y="0" width="350" height="61" filterUnits="userSpaceOnUse" color-interpolation-filters="sRGB">
<feFlood flood-opacity="0" result="BackgroundImageFix"/>
<feColorMatrix in="SourceAlpha" type="matrix" values="0 0 0 0 0 0 0 0 0 0 0 0 0 0 0 0 0 0 127 0" result="hardAlpha"/>
<feOffset dy="4"/>
<feGaussianBlur stdDeviation="2"/>
<feComposite in2="hardAlpha" operator="out"/>
<feColorMatrix type="matrix" values="0 0 0 0 0 0 0 0 0 0 0 0 0 0 0 0 0 0 0.25 0"/>
<feBlend mode="normal" in2="BackgroundImageFix" result="effect1_dropShadow_152_222"/>
<feBlend mode="normal" in="SourceGraphic" in2="effect1_dropShadow_152_222" result="shape"/>
</filter>
</defs>
</svg>
