<svg width="50" height="50" viewBox="0 0 50 50" fill="none" xmlns="http://www.w3.org/2000/svg">
<path d="M18.75 26.5625L25 32.8125M25 32.8125L31.25 26.5625M25 32.8125L25 17.1875M6.25 25C6.25 22.5377 6.73498 20.0995 7.67726 17.8247C8.61953 15.5498 10.0007 13.4829 11.7418 11.7418C13.4828 10.0007 15.5498 8.61954 17.8247 7.67726C20.0995 6.73499 22.5377 6.25001 25 6.25001C27.4623 6.25001 29.9005 6.73499 32.1753 7.67726C34.4502 8.61954 36.5172 10.0007 38.2583 11.7418C39.9994 13.4829 41.3805 15.5498 42.3227 17.8247C43.265 20.0995 43.75 22.5377 43.75 25C43.75 29.9728 41.7746 34.7419 38.2583 38.2583C34.7419 41.7746 29.9728 43.75 25 43.75C20.0272 43.75 15.2581 41.7746 11.7418 38.2583C8.22544 34.7419 6.25 29.9728 6.25 25Z" stroke="white" stroke-width="1.5" stroke-linecap="round" stroke-linejoin="round"/>
</svg>
