<svg width="50" height="50" viewBox="0 0 50 50" fill="none" xmlns="http://www.w3.org/2000/svg">
<path d="M26.5625 31.25L32.8125 25M32.8125 25L26.5625 18.75M32.8125 25L17.1875 25M25 43.75C22.5377 43.75 20.0995 43.265 17.8247 42.3227C15.5498 41.3805 13.4829 39.9993 11.7418 38.2582C10.0007 36.5172 8.61954 34.4502 7.67726 32.1753C6.73499 29.9005 6.25001 27.4623 6.25001 25C6.25001 22.5377 6.73499 20.0995 7.67726 17.8247C8.61954 15.5498 10.0007 13.4828 11.7418 11.7417C13.4829 10.0006 15.5498 8.61953 17.8247 7.67726C20.0995 6.73498 22.5377 6.25 25 6.25C29.9728 6.25 34.7419 8.22544 38.2583 11.7417C41.7746 15.2581 43.75 20.0272 43.75 25C43.75 29.9728 41.7746 34.7419 38.2583 38.2582C34.7419 41.7746 29.9728 43.75 25 43.75Z" stroke="white" stroke-width="1.5" stroke-linecap="round" stroke-linejoin="round"/>
</svg>
