<svg width="50" height="50" viewBox="0 0 50 50" fill="none" xmlns="http://www.w3.org/2000/svg">
<path d="M23.4375 18.75L17.1875 25M17.1875 25L23.4375 31.25M17.1875 25L32.8125 25M25 6.25C27.4623 6.25 29.9005 6.73498 32.1753 7.67726C34.4502 8.61953 36.5171 10.0007 38.2582 11.7418C39.9993 13.4828 41.3805 15.5498 42.3227 17.8247C43.265 20.0995 43.75 22.5377 43.75 25C43.75 27.4623 43.265 29.9005 42.3227 32.1753C41.3805 34.4502 39.9993 36.5172 38.2582 38.2583C36.5171 39.9994 34.4502 41.3805 32.1753 42.3227C29.9005 43.265 27.4623 43.75 25 43.75C20.0272 43.75 15.2581 41.7746 11.7417 38.2583C8.22544 34.7419 6.25 29.9728 6.25 25C6.25 20.0272 8.22544 15.2581 11.7417 11.7418C15.2581 8.22544 20.0272 6.25 25 6.25Z" stroke="white" stroke-width="1.5" stroke-linecap="round" stroke-linejoin="round"/>
</svg>
