<svg width="50" height="50" viewBox="0 0 50 50" fill="none" xmlns="http://www.w3.org/2000/svg">
<path d="M37.4626 39.0104C36.0069 37.0831 34.1235 35.52 31.9609 34.4445C29.7982 33.369 27.4154 32.8103 25.0001 32.8125C22.5847 32.8103 20.2019 33.369 18.0393 34.4445C15.8766 35.52 13.9933 37.0831 12.5376 39.0104M37.4626 39.0104C40.3032 36.4837 42.3066 33.1532 43.2109 29.4606C44.1152 25.768 43.8756 21.8877 42.524 18.3343C41.1723 14.781 38.7724 11.7224 35.6426 9.56436C32.5127 7.40628 28.8008 6.25061 24.999 6.25061C21.1973 6.25061 17.4853 7.40628 14.3555 9.56436C11.2256 11.7224 8.82575 14.781 7.4741 18.3343C6.12244 21.8877 5.88288 25.768 6.78719 29.4606C7.6915 33.1532 9.69694 36.4837 12.5376 39.0104M37.4626 39.0104C34.0334 42.0691 29.5951 43.7565 25.0001 43.75C20.4043 43.757 15.9672 42.0696 12.5376 39.0104M31.2501 20.3125C31.2501 21.9701 30.5916 23.5598 29.4195 24.7319C28.2474 25.904 26.6577 26.5625 25.0001 26.5625C23.3425 26.5625 21.7528 25.904 20.5807 24.7319C19.4085 23.5598 18.7501 21.9701 18.7501 20.3125C18.7501 18.6549 19.4085 17.0652 20.5807 15.8931C21.7528 14.721 23.3425 14.0625 25.0001 14.0625C26.6577 14.0625 28.2474 14.721 29.4195 15.8931C30.5916 17.0652 31.2501 18.6549 31.2501 20.3125Z" stroke="white" stroke-width="1.5" stroke-linecap="round" stroke-linejoin="round"/>
</svg>
