<svg width="50" height="50" viewBox="0 0 50 50" fill="none" xmlns="http://www.w3.org/2000/svg">
<path d="M14.2229 12.8646C13.8479 13.4581 13.3475 13.9625 12.757 14.3422C12.1664 14.7218 11.4998 14.9677 10.8042 15.0625C10.0125 15.175 9.22708 15.2958 8.44167 15.4271C6.24792 15.7917 4.6875 17.7229 4.6875 19.9458V37.5C4.6875 38.7432 5.18136 39.9355 6.06044 40.8146C6.93951 41.6936 8.1318 42.1875 9.375 42.1875H40.625C41.8682 42.1875 43.0605 41.6936 43.9396 40.8146C44.8186 39.9355 45.3125 38.7432 45.3125 37.5V19.9458C45.3125 17.7229 43.75 15.7917 41.5583 15.4271C40.7723 15.2961 39.9848 15.1746 39.1958 15.0625C38.5005 14.9674 37.8344 14.7214 37.2442 14.3417C36.654 13.9621 36.154 13.4579 35.7792 12.8646L34.0667 10.1229C33.682 9.49812 33.1525 8.9752 32.523 8.59841C31.8934 8.22162 31.1824 8.00207 30.45 7.95833C26.8193 7.76332 23.1807 7.76332 19.55 7.95833C18.8176 8.00207 18.1065 8.22162 17.477 8.59841C16.8474 8.9752 16.318 9.49812 15.9333 10.1229L14.2229 12.8646Z" stroke="white" stroke-width="1.5" stroke-linecap="round" stroke-linejoin="round"/>
<path d="M34.375 26.5625C34.375 29.0489 33.3873 31.4335 31.6291 33.1916C29.871 34.9498 27.4864 35.9375 25 35.9375C22.5136 35.9375 20.129 34.9498 18.3709 33.1916C16.6127 31.4335 15.625 29.0489 15.625 26.5625C15.625 24.0761 16.6127 21.6915 18.3709 19.9334C20.129 18.1752 22.5136 17.1875 25 17.1875C27.4864 17.1875 29.871 18.1752 31.6291 19.9334C33.3873 21.6915 34.375 24.0761 34.375 26.5625ZM39.0625 21.875H39.0792V21.8917H39.0625V21.875Z" stroke="white" stroke-width="1.5" stroke-linecap="round" stroke-linejoin="round"/>
</svg>
