<svg width="50" height="50" viewBox="0 0 50 50" fill="none" xmlns="http://www.w3.org/2000/svg">
<path d="M35.1292 9.34791L38.6437 5.83125C39.3764 5.09859 40.3701 4.68698 41.4062 4.68698C42.4424 4.68698 43.4361 5.09859 44.1687 5.83125C44.9014 6.56391 45.313 7.55761 45.313 8.59375C45.313 9.62988 44.9014 10.6236 44.1687 11.3562L22.0458 33.4792C20.9444 34.5799 19.5862 35.389 18.0938 35.8333L12.5 37.5L14.1667 31.9062C14.611 30.4138 15.4201 29.0556 16.5208 27.9542L35.1292 9.34791ZM35.1292 9.34791L40.625 14.8437M37.5 29.1667V39.0625C37.5 40.3057 37.0061 41.498 36.1271 42.3771C35.248 43.2561 34.0557 43.75 32.8125 43.75H10.9375C9.6943 43.75 8.50201 43.2561 7.62294 42.3771C6.74386 41.498 6.25 40.3057 6.25 39.0625V17.1875C6.25 15.9443 6.74386 14.752 7.62294 13.8729C8.50201 12.9939 9.6943 12.5 10.9375 12.5H20.8333" stroke="white" stroke-width="1.5" stroke-linecap="round" stroke-linejoin="round"/>
</svg>
