<svg width="51" height="52" viewBox="0 0 51 52" fill="none" xmlns="http://www.w3.org/2000/svg">
<path d="M32.9137 19.7778L32.8714 11.9654C32.8646 10.7222 32.3643 9.53226 31.4805 8.65732C30.5966 7.78237 29.4017 7.29411 28.1585 7.29994L15.6586 7.35852C14.4155 7.36435 13.2259 7.86379 12.3516 8.74697C11.4773 9.63016 10.9899 10.8247 10.9966 12.0679L11.1491 40.1925C11.1558 41.4357 11.6561 42.6256 12.54 43.5006C13.4238 44.3755 14.6187 44.8638 15.8619 44.858L28.3618 44.7994C29.605 44.7936 30.7946 44.2941 31.6689 43.4109C32.5432 42.5277 33.0306 41.3332 33.0238 40.09L32.9815 32.2776M25.1013 19.8144L18.8852 26.0936M18.8852 26.0936L25.1691 32.3142M18.8852 26.0936L45.4475 25.9691" stroke="white" stroke-width="1.5" stroke-linecap="round" stroke-linejoin="round"/>
</svg>
