<svg width="50" height="50" viewBox="0 0 50 50" fill="none" xmlns="http://www.w3.org/2000/svg">
<path d="M32.0044 10.8625C35.5979 12.4683 38.5315 15.2585 40.3153 18.767C42.0991 22.2755 42.625 26.2898 41.8051 30.1394C40.9853 33.989 38.8693 37.4407 35.8107 39.9179C32.7521 42.3951 28.9362 43.7478 25.0002 43.75C21.6336 43.7499 18.3411 42.761 15.5315 40.9061C12.7219 39.0513 10.519 36.4121 9.19604 33.3163C7.87312 30.2205 7.48853 26.8043 8.09001 23.4918C8.69149 20.1793 10.2525 17.1164 12.5794 14.6833C14.1829 16.9224 16.2987 18.7453 18.7502 20C18.7932 17.2471 19.443 14.5377 20.6533 12.0648C21.8637 9.59189 23.6047 7.41651 25.7523 5.69376C27.3914 7.89207 29.535 9.66409 32.0023 10.8604L32.0044 10.8625Z" stroke="white" stroke-width="1.5" stroke-linecap="round" stroke-linejoin="round"/>
<path d="M25.0001 37.5C26.9822 37.4993 28.8898 36.7452 30.3367 35.3906C31.7836 34.0359 32.6615 32.182 32.7926 30.2043C32.9237 28.2266 32.2982 26.273 31.0428 24.7392C29.7874 23.2054 27.996 22.2061 26.0314 21.9438C23.8805 23.8684 22.4632 26.4791 22.0209 29.3313C20.4161 28.9386 18.9055 28.2304 17.5772 27.2479C17.1915 28.4214 17.0895 29.6696 17.2796 30.8901C17.4698 32.1106 17.9466 33.2687 18.6711 34.2692C19.3955 35.2697 20.3468 36.0842 21.447 36.6458C22.5472 37.2074 23.7649 37.5002 25.0001 37.5Z" stroke="white" stroke-width="1.5" stroke-linecap="round" stroke-linejoin="round"/>
</svg>
