<svg width="50" height="50" viewBox="0 0 50 50" fill="none" xmlns="http://www.w3.org/2000/svg">
<mask id="path-1-inside-1_113_587" fill="white">
<path fill-rule="evenodd" clip-rule="evenodd" d="M18.9325 16.9932H21.846C22.7752 17.4854 23.8054 17.8432 24.9268 17.8432C26.0507 17.8432 27.0815 17.4854 28.0101 16.9932H30.9237C29.7471 18.1302 28.8341 19.7172 28.8341 21.4968V29.1463C28.8341 29.1718 28.8372 29.1958 28.8408 29.2213L30.2752 42.4083C30.2976 42.5968 30.2752 42.6036 30.1481 42.6942C30.0174 42.7864 29.7372 42.877 29.4205 42.877C29.1049 42.8739 28.7653 42.7864 28.5346 42.6526C28.3033 42.5182 28.1919 42.3755 28.1533 42.1864L26.1325 32.6198C26.0773 32.3567 25.9955 32.0885 25.7903 31.8708C25.5851 31.6526 25.2622 31.4984 24.9268 31.4984C24.594 31.4984 24.2684 31.652 24.0658 31.8708C23.8606 32.0885 23.7799 32.3567 23.7231 32.6198L21.7028 42.1864C21.6643 42.376 21.5533 42.5187 21.3216 42.6526C21.0908 42.7859 20.7481 42.8734 20.4325 42.877C20.1195 42.877 19.8362 42.7864 19.7091 42.6942C19.5789 42.6036 19.5585 42.5968 19.5789 42.4083L21.0153 29.2213C21.0184 29.1958 21.0184 29.1718 21.0184 29.1463V21.4968C21.0179 19.7172 20.1049 18.1302 18.9325 16.9932ZM41.9299 16.8C42.3148 16.8031 42.6299 17.0937 42.9106 17.5895L48.3669 27.2172C48.4841 27.4479 48.4773 27.602 48.4263 27.7385C48.3737 27.8786 48.2502 28.0015 48.0929 28.0932C47.7283 28.3052 47.3117 28.1588 46.9492 27.6468L43.2768 22.4583C42.8429 21.8453 41.8778 22.2364 41.9955 22.9797L43.0122 29.2406L44.4424 42.4093C44.4653 42.601 44.4424 42.6073 44.319 42.6953C44.1945 42.7833 43.9153 42.8744 43.6028 42.8708C43.2898 42.8677 42.9539 42.7864 42.7158 42.65L42.3153 42.1713L40.3007 33.6479C40.2382 33.3802 40.1632 33.1067 39.958 32.889C39.7528 32.6708 39.4273 32.5135 39.0945 32.5135C38.7591 32.5135 38.4362 32.6708 38.2309 32.889C38.0257 33.1067 37.9211 33.3771 37.8888 33.6479L36.8747 42.252C36.7804 43.0437 34.8414 43.0739 34.7726 42.2916L35.1836 30.1864C35.1836 30.1536 35.1799 30.1244 35.1763 30.0958L34.1664 19.6687C34.1268 19.3031 33.8242 19.0297 33.4585 19.0297H31.0799C31.6888 18.1922 32.4221 17.3224 33.4653 16.9932H34.9976C35.9263 17.4817 36.957 17.8432 38.0768 17.8432C39.3382 17.8432 40.4669 17.3776 41.5184 16.8979C41.6658 16.8291 41.7992 16.8 41.9299 16.8ZM7.92626 16.8C8.05334 16.8 8.1898 16.8297 8.33355 16.8979C9.38667 17.3776 10.5169 17.8432 11.7752 17.8432C12.8997 17.8432 13.9299 17.4823 14.8585 16.9932H16.3872C17.4304 17.3213 18.1669 18.1922 18.7737 19.0297H16.3971C16.0325 19.0297 15.7257 19.3031 15.6898 19.6687L14.6789 30.0948C14.6731 30.1244 14.6731 30.1531 14.6731 30.1859L15.0835 42.2906C15.0117 43.0739 13.0763 43.0437 12.9809 42.2515L11.9648 33.6474C11.9346 33.3765 11.8278 33.1062 11.6221 32.8885C11.42 32.6703 11.0945 32.513 10.7617 32.513C10.4263 32.513 10.1002 32.6703 9.89813 32.8885C9.69292 33.1062 9.6174 33.3797 9.55542 33.6474L7.54136 42.1708L7.13615 42.6494C6.90178 42.7864 6.56323 42.8672 6.25021 42.8703C5.93719 42.8734 5.66011 42.7828 5.53615 42.6942C5.40907 42.6067 5.39032 42.6 5.40907 42.4083L6.84032 29.2401L7.85751 22.9797C7.9773 22.2364 7.01323 21.8453 6.57886 22.4583L2.90594 27.6468C2.54136 28.1593 2.12782 28.3052 1.76219 28.0932C1.6023 28.0026 1.47886 27.8786 1.4299 27.7385C1.3773 27.601 1.37053 27.4479 1.48823 27.2172L6.94448 17.5895C7.22521 17.0937 7.54136 16.8031 7.92626 16.8ZM7.94188 15.3859C7.57678 15.3958 7.22521 15.4968 6.93823 15.6531C6.36792 15.9661 5.96376 16.4359 5.70646 16.889L0.247089 26.5286C-0.078953 27.1026 -0.0299946 27.725 0.0970886 28.2276C0.230422 28.7489 0.664276 29.1208 1.12001 29.3547C2.03303 29.8208 3.35282 29.577 4.08303 28.4385L5.96376 25.7797L5.43876 29.0317L4.00178 42.2552C3.9299 42.9067 4.25542 43.5234 4.71219 43.8489C5.17209 44.175 5.71584 44.2922 6.26063 44.2895C6.80178 44.2864 7.35542 44.1588 7.84448 43.8786C8.33719 43.5979 8.77365 43.1291 8.92053 42.4968C9.51376 39.9906 10.4268 36.1218 10.6971 34.977L11.5737 42.4187C11.8768 44.9843 16.5955 44.9672 16.508 42.3828L16.0908 30.1869L17.0393 20.4479H19.4419C19.5648 20.8359 19.5721 21.2109 19.6013 21.5562V29.1052L18.17 42.2562C18.0981 42.9078 18.4309 43.5307 18.8903 43.8567C19.3502 44.1828 19.8971 44.2963 20.4424 44.2963C20.9862 44.2932 21.5408 44.1692 22.0325 43.8859C22.521 43.5989 22.9612 43.1166 23.0945 42.4817L24.9268 33.776L26.7617 42.4817C26.895 43.1166 27.332 43.5989 27.8237 43.8859C28.3122 44.1692 28.8669 44.2932 29.4148 44.2963C29.9585 44.2963 30.5059 44.1833 30.9664 43.8567C31.4263 43.5307 31.7544 42.9078 31.6867 42.2562L30.2528 29.1052V21.5547C30.282 21.2093 30.2908 20.8349 30.4153 20.4468H32.8179L33.7658 30.1859L33.3487 42.3817C33.2606 44.9666 37.9799 44.9828 38.2841 42.4172L39.1601 34.976C39.4309 36.1208 40.3434 39.989 40.933 42.4953C41.083 43.1281 41.5195 43.5968 42.0086 43.877C42.5013 44.1578 43.0518 44.2854 43.5961 44.2885C44.1372 44.2906 44.6846 44.1739 45.1408 43.8479C45.6007 43.5224 45.9237 42.9062 45.8549 42.2541L44.4174 29.0307L43.8888 25.7797L45.769 28.4385C46.4992 29.577 47.8221 29.8208 48.7351 29.3547C49.1914 29.1198 49.6247 28.7489 49.7559 28.2276C49.8862 27.725 49.9341 27.1031 49.6091 26.5286L44.1497 16.8885C43.8919 16.4354 43.4882 15.9656 42.9138 15.6526C42.6278 15.4968 42.2783 15.3953 41.9096 15.3854C41.545 15.3755 41.157 15.4604 40.7987 15.6724C40.0101 16.138 39.0679 16.4187 38.0768 16.4187C37.083 16.4187 36.1377 16.1448 35.3627 15.6755C35.2523 15.6099 35.1247 15.575 34.9976 15.575H28.0091C27.8794 15.575 27.7492 15.6099 27.6382 15.6755C26.8622 16.1442 25.9237 16.4187 24.9268 16.4187C23.9325 16.4187 22.9898 16.1448 22.2184 15.6755C22.1039 15.6099 21.9773 15.575 21.846 15.575H14.858C14.7278 15.575 14.6007 15.6099 14.4929 15.6755C13.7169 16.1442 12.7716 16.4187 11.7747 16.4187C10.7841 16.4187 9.84553 16.138 9.05646 15.6724C8.69501 15.4609 8.31011 15.376 7.94188 15.3859Z"/>
</mask>
<path fill-rule="evenodd" clip-rule="evenodd" d="M18.9325 16.9932H21.846C22.7752 17.4854 23.8054 17.8432 24.9268 17.8432C26.0507 17.8432 27.0815 17.4854 28.0101 16.9932H30.9237C29.7471 18.1302 28.8341 19.7172 28.8341 21.4968V29.1463C28.8341 29.1718 28.8372 29.1958 28.8408 29.2213L30.2752 42.4083C30.2976 42.5968 30.2752 42.6036 30.1481 42.6942C30.0174 42.7864 29.7372 42.877 29.4205 42.877C29.1049 42.8739 28.7653 42.7864 28.5346 42.6526C28.3033 42.5182 28.1919 42.3755 28.1533 42.1864L26.1325 32.6198C26.0773 32.3567 25.9955 32.0885 25.7903 31.8708C25.5851 31.6526 25.2622 31.4984 24.9268 31.4984C24.594 31.4984 24.2684 31.652 24.0658 31.8708C23.8606 32.0885 23.7799 32.3567 23.7231 32.6198L21.7028 42.1864C21.6643 42.376 21.5533 42.5187 21.3216 42.6526C21.0908 42.7859 20.7481 42.8734 20.4325 42.877C20.1195 42.877 19.8362 42.7864 19.7091 42.6942C19.5789 42.6036 19.5585 42.5968 19.5789 42.4083L21.0153 29.2213C21.0184 29.1958 21.0184 29.1718 21.0184 29.1463V21.4968C21.0179 19.7172 20.1049 18.1302 18.9325 16.9932ZM41.9299 16.8C42.3148 16.8031 42.6299 17.0937 42.9106 17.5895L48.3669 27.2172C48.4841 27.4479 48.4773 27.602 48.4263 27.7385C48.3737 27.8786 48.2502 28.0015 48.0929 28.0932C47.7283 28.3052 47.3117 28.1588 46.9492 27.6468L43.2768 22.4583C42.8429 21.8453 41.8778 22.2364 41.9955 22.9797L43.0122 29.2406L44.4424 42.4093C44.4653 42.601 44.4424 42.6073 44.319 42.6953C44.1945 42.7833 43.9153 42.8744 43.6028 42.8708C43.2898 42.8677 42.9539 42.7864 42.7158 42.65L42.3153 42.1713L40.3007 33.6479C40.2382 33.3802 40.1632 33.1067 39.958 32.889C39.7528 32.6708 39.4273 32.5135 39.0945 32.5135C38.7591 32.5135 38.4362 32.6708 38.2309 32.889C38.0257 33.1067 37.9211 33.3771 37.8888 33.6479L36.8747 42.252C36.7804 43.0437 34.8414 43.0739 34.7726 42.2916L35.1836 30.1864C35.1836 30.1536 35.1799 30.1244 35.1763 30.0958L34.1664 19.6687C34.1268 19.3031 33.8242 19.0297 33.4585 19.0297H31.0799C31.6888 18.1922 32.4221 17.3224 33.4653 16.9932H34.9976C35.9263 17.4817 36.957 17.8432 38.0768 17.8432C39.3382 17.8432 40.4669 17.3776 41.5184 16.8979C41.6658 16.8291 41.7992 16.8 41.9299 16.8ZM7.92626 16.8C8.05334 16.8 8.1898 16.8297 8.33355 16.8979C9.38667 17.3776 10.5169 17.8432 11.7752 17.8432C12.8997 17.8432 13.9299 17.4823 14.8585 16.9932H16.3872C17.4304 17.3213 18.1669 18.1922 18.7737 19.0297H16.3971C16.0325 19.0297 15.7257 19.3031 15.6898 19.6687L14.6789 30.0948C14.6731 30.1244 14.6731 30.1531 14.6731 30.1859L15.0835 42.2906C15.0117 43.0739 13.0763 43.0437 12.9809 42.2515L11.9648 33.6474C11.9346 33.3765 11.8278 33.1062 11.6221 32.8885C11.42 32.6703 11.0945 32.513 10.7617 32.513C10.4263 32.513 10.1002 32.6703 9.89813 32.8885C9.69292 33.1062 9.6174 33.3797 9.55542 33.6474L7.54136 42.1708L7.13615 42.6494C6.90178 42.7864 6.56323 42.8672 6.25021 42.8703C5.93719 42.8734 5.66011 42.7828 5.53615 42.6942C5.40907 42.6067 5.39032 42.6 5.40907 42.4083L6.84032 29.2401L7.85751 22.9797C7.9773 22.2364 7.01323 21.8453 6.57886 22.4583L2.90594 27.6468C2.54136 28.1593 2.12782 28.3052 1.76219 28.0932C1.6023 28.0026 1.47886 27.8786 1.4299 27.7385C1.3773 27.601 1.37053 27.4479 1.48823 27.2172L6.94448 17.5895C7.22521 17.0937 7.54136 16.8031 7.92626 16.8ZM7.94188 15.3859C7.57678 15.3958 7.22521 15.4968 6.93823 15.6531C6.36792 15.9661 5.96376 16.4359 5.70646 16.889L0.247089 26.5286C-0.078953 27.1026 -0.0299946 27.725 0.0970886 28.2276C0.230422 28.7489 0.664276 29.1208 1.12001 29.3547C2.03303 29.8208 3.35282 29.577 4.08303 28.4385L5.96376 25.7797L5.43876 29.0317L4.00178 42.2552C3.9299 42.9067 4.25542 43.5234 4.71219 43.8489C5.17209 44.175 5.71584 44.2922 6.26063 44.2895C6.80178 44.2864 7.35542 44.1588 7.84448 43.8786C8.33719 43.5979 8.77365 43.1291 8.92053 42.4968C9.51376 39.9906 10.4268 36.1218 10.6971 34.977L11.5737 42.4187C11.8768 44.9843 16.5955 44.9672 16.508 42.3828L16.0908 30.1869L17.0393 20.4479H19.4419C19.5648 20.8359 19.5721 21.2109 19.6013 21.5562V29.1052L18.17 42.2562C18.0981 42.9078 18.4309 43.5307 18.8903 43.8567C19.3502 44.1828 19.8971 44.2963 20.4424 44.2963C20.9862 44.2932 21.5408 44.1692 22.0325 43.8859C22.521 43.5989 22.9612 43.1166 23.0945 42.4817L24.9268 33.776L26.7617 42.4817C26.895 43.1166 27.332 43.5989 27.8237 43.8859C28.3122 44.1692 28.8669 44.2932 29.4148 44.2963C29.9585 44.2963 30.5059 44.1833 30.9664 43.8567C31.4263 43.5307 31.7544 42.9078 31.6867 42.2562L30.2528 29.1052V21.5547C30.282 21.2093 30.2908 20.8349 30.4153 20.4468H32.8179L33.7658 30.1859L33.3487 42.3817C33.2606 44.9666 37.9799 44.9828 38.2841 42.4172L39.1601 34.976C39.4309 36.1208 40.3434 39.989 40.933 42.4953C41.083 43.1281 41.5195 43.5968 42.0086 43.877C42.5013 44.1578 43.0518 44.2854 43.5961 44.2885C44.1372 44.2906 44.6846 44.1739 45.1408 43.8479C45.6007 43.5224 45.9237 42.9062 45.8549 42.2541L44.4174 29.0307L43.8888 25.7797L45.769 28.4385C46.4992 29.577 47.8221 29.8208 48.7351 29.3547C49.1914 29.1198 49.6247 28.7489 49.7559 28.2276C49.8862 27.725 49.9341 27.1031 49.6091 26.5286L44.1497 16.8885C43.8919 16.4354 43.4882 15.9656 42.9138 15.6526C42.6278 15.4968 42.2783 15.3953 41.9096 15.3854C41.545 15.3755 41.157 15.4604 40.7987 15.6724C40.0101 16.138 39.0679 16.4187 38.0768 16.4187C37.083 16.4187 36.1377 16.1448 35.3627 15.6755C35.2523 15.6099 35.1247 15.575 34.9976 15.575H28.0091C27.8794 15.575 27.7492 15.6099 27.6382 15.6755C26.8622 16.1442 25.9237 16.4187 24.9268 16.4187C23.9325 16.4187 22.9898 16.1448 22.2184 15.6755C22.1039 15.6099 21.9773 15.575 21.846 15.575H14.858C14.7278 15.575 14.6007 15.6099 14.4929 15.6755C13.7169 16.1442 12.7716 16.4187 11.7747 16.4187C10.7841 16.4187 9.84553 16.138 9.05646 15.6724C8.69501 15.4609 8.31011 15.376 7.94188 15.3859Z" fill="white" stroke="white" mask="url(#path-1-inside-1_113_587)"/>
<mask id="mask0_113_587" style="mask-type:luminance" maskUnits="userSpaceOnUse" x="6" y="5" width="11" height="11">
<path d="M6.7998 5H16.9331V15.3333H6.7998V5Z" fill="white"/>
</mask>
<g mask="url(#mask0_113_587)">
<path fill-rule="evenodd" clip-rule="evenodd" d="M11.8783 6.41291C13.9475 6.41291 15.496 7.7952 15.496 9.39625V10.9108C15.496 12.515 13.947 13.8968 11.8783 13.8968C9.8095 13.8968 8.2668 12.515 8.2668 10.9108V9.39625C8.26732 7.79573 9.8095 6.41291 11.8783 6.41291ZM11.8783 4.98843C9.1569 4.98843 6.84961 6.90145 6.84961 9.39625V10.9108C6.84961 13.4041 9.1569 15.314 11.8783 15.314C14.5996 15.314 16.9137 13.4041 16.9137 10.9108V9.39625C16.9137 6.9025 14.6001 4.98843 11.8783 4.98843Z" fill="white"/>
</g>
<mask id="mask1_113_587" style="mask-type:luminance" maskUnits="userSpaceOnUse" x="32" y="5" width="12" height="11">
<path d="M32.9331 5H43.1998V15.3333H32.9331V5Z" fill="white"/>
</mask>
<g mask="url(#mask1_113_587)">
<path fill-rule="evenodd" clip-rule="evenodd" d="M38.0999 6.41291C40.1697 6.41291 41.7113 7.7952 41.7113 9.39625V10.9108C41.7113 12.515 40.1697 13.8968 38.0999 13.8968C36.0301 13.8968 34.4822 12.515 34.4822 10.9108V9.39625C34.4816 7.79573 36.0301 6.41291 38.0999 6.41291ZM38.0999 4.98843C35.3785 4.98843 33.0645 6.90145 33.0645 9.39625V10.9108C33.0645 13.4041 35.378 15.314 38.0999 15.314C40.8223 15.314 43.129 13.4041 43.129 10.9108V9.39625C43.129 6.9025 40.8217 4.98843 38.0999 4.98843Z" fill="white"/>
</g>
<mask id="mask2_113_587" style="mask-type:luminance" maskUnits="userSpaceOnUse" x="20" y="5" width="11" height="11">
<path d="M20 5H30.1333V15.3333H20V5Z" fill="white"/>
</mask>
<g mask="url(#mask2_113_587)">
<path fill-rule="evenodd" clip-rule="evenodd" d="M25.0302 6.41291C27.1026 6.41291 28.6479 7.7952 28.6479 9.39625V10.9108C28.6479 12.515 27.1026 13.8968 25.0302 13.8968C22.9599 13.8968 21.4187 12.515 21.4187 10.9108V9.39625C21.4192 7.79573 22.9599 6.41291 25.0302 6.41291ZM25.0302 4.98843C22.3114 4.98843 20.0005 6.90145 20.0005 9.39625V10.9108C20.0005 13.4041 22.3114 15.314 25.0302 15.314C27.751 15.314 30.0656 13.4041 30.0656 10.9108V9.39625C30.0656 6.9025 27.751 4.98843 25.0302 4.98843Z" fill="white"/>
</g>
</svg>
