<svg width="50" height="50" viewBox="0 0 50 50" fill="none" xmlns="http://www.w3.org/2000/svg">
<path fill-rule="evenodd" clip-rule="evenodd" d="M17.9251 6.87392C19.8131 4.98588 22.3592 3.9375 25.0002 3.9375C27.6413 3.9375 30.1873 4.98588 32.0753 6.87392C33.9659 8.76445 35.0449 11.348 35.0449 14.0625V21.125H35.9377C37.3356 21.125 38.6893 21.6795 39.6983 22.6885C40.7097 23.6999 41.2949 25.0912 41.2949 26.5625V40.625C41.2949 42.0963 40.7097 43.4876 39.6983 44.499C38.6893 45.508 37.3356 46.0625 35.9377 46.0625H14.0627C12.6649 46.0625 11.3111 45.508 10.3022 44.499C9.29071 43.4876 8.70557 42.0963 8.70557 40.625V26.5625C8.70557 25.0912 9.29071 23.6999 10.3022 22.6885C11.3111 21.6795 12.6649 21.125 14.0627 21.125H14.9556V14.0625C14.9556 11.348 16.0346 8.76445 17.9251 6.87392ZM14.0627 22.625C12.9742 22.625 11.9433 23.0582 11.1941 23.8074C10.4474 24.5541 10.0449 25.5474 10.0449 26.5625V40.625C10.0449 41.6401 10.4474 42.6334 11.1941 43.3801C11.9433 44.1293 12.9742 44.5625 14.0627 44.5625H35.9377C37.0263 44.5625 38.0571 44.1293 38.8063 43.3801C39.553 42.6334 39.9556 41.6401 39.9556 40.625V26.5625C39.9556 25.5474 39.553 24.5541 38.8063 23.8074C38.0571 23.0582 37.0263 22.625 35.9377 22.625H14.0627ZM33.7056 21.125H16.2949V14.0625C16.2949 11.8042 17.1913 9.61861 18.8171 7.99283C20.4453 6.36456 22.6684 5.4375 25.0002 5.4375C27.332 5.4375 29.5551 6.36456 31.1833 7.99283C32.8091 9.61861 33.7056 11.8042 33.7056 14.0625V21.125Z" fill="white"/>
</svg>
