<svg width="50" height="50" viewBox="0 0 56 50" fill="none" xmlns="http://www.w3.org/2000/svg">
<path d="M36.75 32.8125L30.9423 27.6271M30.9423 27.6271C31.6736 26.9742 32.2537 26.199 32.6494 25.346C33.0452 24.4929 33.2489 23.5786 33.2489 22.6552C33.2489 21.7318 33.0452 20.8175 32.6494 19.9644C32.2537 19.1114 31.6736 18.3362 30.9423 17.6833C30.2111 17.0304 29.3429 16.5125 28.3875 16.1591C27.432 15.8058 26.408 15.6239 25.3738 15.6239C24.3397 15.6239 23.3156 15.8058 22.3602 16.1591C21.4047 16.5125 20.5366 17.0304 19.8053 17.6833C18.3282 19.0022 17.4983 20.791 17.4983 22.6562C17.4983 24.5215 18.3282 26.3103 19.8053 27.6292C21.2825 28.9481 23.286 29.689 25.375 29.689C27.464 29.689 29.4675 28.9481 30.9447 27.6292L30.9423 27.6271ZM49 25C49 27.4623 48.4568 29.9005 47.4015 32.1753C46.3461 34.4502 44.7993 36.5172 42.8492 38.2582C40.8992 39.9993 38.5842 41.3805 36.0364 42.3227C33.4885 43.265 30.7578 43.75 28 43.75C25.2422 43.75 22.5115 43.265 19.9636 42.3227C17.4158 41.3805 15.1008 39.9993 13.1508 38.2582C11.2007 36.5172 9.65388 34.4502 8.59853 32.1753C7.54318 29.9005 7 27.4623 7 25C7 20.0272 9.21249 15.2581 13.1508 11.7417C17.089 8.22544 22.4305 6.25 28 6.25C33.5695 6.25 38.911 8.22544 42.8492 11.7417C46.7875 15.2581 49 20.0272 49 25Z" stroke="white" stroke-width="1.5" stroke-linecap="round" stroke-linejoin="round"/>
</svg>
