<svg width="50" height="50" viewBox="0 0 50 50" fill="none" xmlns="http://www.w3.org/2000/svg">
<g clip-path="url(#clip0_116_1883)">
<path d="M49.9999 22.1814H35.3535M29.8611 12.4081C29.8611 13.4582 29.648 14.498 29.2339 15.4681C28.8199 16.4383 28.213 17.3198 27.448 18.0623C26.683 18.8049 25.7748 19.3939 24.7752 19.7957C23.7756 20.1976 22.7043 20.4044 21.6224 20.4044C20.5405 20.4044 19.4692 20.1976 18.4696 19.7957C17.4701 19.3939 16.5618 18.8049 15.7968 18.0623C15.0318 17.3198 14.4249 16.4383 14.0109 15.4681C13.5969 14.498 13.3838 13.4582 13.3838 12.4081C13.3838 10.2873 14.2518 8.25344 15.7968 6.75384C17.3419 5.25424 19.4374 4.41177 21.6224 4.41177C23.8074 4.41177 25.903 5.25424 27.448 6.75384C28.9931 8.25344 29.8611 10.2873 29.8611 12.4081ZM6.06055 42.877V42.6164C6.06055 38.6105 7.7001 34.7687 10.6185 31.9361C13.5369 29.1036 17.4952 27.5122 21.6224 27.5122C25.7497 27.5122 29.7079 29.1036 32.6263 31.9361C35.5447 34.7687 37.1843 38.6105 37.1843 42.6164V42.8746C32.4864 45.6209 27.1041 47.0678 21.62 47.0588C15.9298 47.0588 10.6058 45.5306 6.06055 42.8746V42.877Z" stroke="white" stroke-width="1.5" stroke-linecap="round" stroke-linejoin="round"/>
</g>
<defs>
<clipPath id="clip0_116_1883">
<rect width="50" height="50" fill="white"/>
</clipPath>
</defs>
</svg>
