<svg width="50" height="50" viewBox="0 0 50 50" fill="none" xmlns="http://www.w3.org/2000/svg">
<mask id="path-1-inside-1_113_586" fill="white">
<path d="M40.5769 42.9847C40.3493 40.8383 39.889 39.5005 36.9114 36.586C36.3491 36.0382 35.857 35.5841 35.4216 35.1847C33.3247 33.258 33.0028 32.9622 33.8917 30.2029C34.1609 29.3635 34.3932 28.8047 34.5619 28.3975C35.1118 27.0733 35.0144 26.8426 33.9969 25.6439C33.7183 25.3143 33.3715 24.9055 32.9253 24.3368C32.1775 23.3844 31.9468 22.4789 32.2363 21.6426C32.7102 20.2783 34.4614 19.2946 35.9866 18.9249C37.1562 18.6427 37.8144 19.0473 38.647 19.5597C39.5328 20.1033 40.5368 20.7209 42.1578 20.3694C42.6364 20.2658 43.0732 20.1403 43.4945 20.021C45.4717 19.456 46.6751 19.1181 48.6445 22.1644C48.7284 22.8627 48.7825 23.5688 48.8028 24.2796C48.8107 24.5196 48.8106 24.7597 48.8106 24.9997C48.8106 32.1759 45.6144 38.6163 40.5769 42.9847ZM1.18883 24.9997C1.18883 23.4433 1.34244 21.9134 1.63041 20.4236C2.8786 21.3546 3.96744 22.7944 4.45329 26.4755C4.91778 29.9925 6.75752 30.658 8.38063 31.2454C9.02478 31.4792 9.63351 31.6989 10.1537 32.0858C11.6649 33.2117 14.7872 36.3584 14.7872 38.8965C14.7872 41.3663 15.9422 42.3234 17.0586 43.2498C17.4304 43.5575 17.8142 43.8767 18.1646 44.2579C18.9931 45.1603 19.2701 46.9693 19.3368 48.1243C8.93365 45.5754 1.18883 36.1772 1.18883 24.9997ZM10.8025 5.87957C13.3562 6.85854 15.3506 6.73773 16.9644 6.63827C17.8704 6.58099 18.6536 6.53308 19.3675 6.68513C20.0846 6.8351 20.4022 7.73337 20.8401 9.19506C21.277 10.6495 21.7728 12.297 23.1756 13.1922C23.5781 13.4489 23.7547 13.8176 23.7036 14.2899C23.6198 15.0533 22.9606 15.8463 22.1691 16.1359C21.6379 16.3296 20.8204 16.3837 19.944 15.5459C18.4089 14.0779 17.2742 14.2003 16.5926 14.5607C15.3678 15.21 14.8596 17.1049 15.0918 18.488C15.5985 21.5093 14.9897 23.021 12.9875 23.7036C11.2998 24.2796 10.3891 26.1177 10.9541 27.8013C11.2545 28.6917 11.7753 29.3556 12.4996 29.7722C12.7876 29.9383 13.0958 30.1268 13.4244 30.3284C15.5797 31.6463 18.5328 33.4501 21.2213 32.3509C23.0626 31.5969 25.7277 31.248 27.0394 32.0874C27.4914 32.3769 27.7237 32.7904 27.7487 33.3512C27.871 36.1231 26.324 42.1995 25.1221 44.5412C24.2192 46.3018 24.1963 47.889 24.2921 48.7919C23.0132 48.7549 21.7587 48.6169 20.5381 48.3847C20.5043 47.3099 20.2892 44.812 19.0395 43.4523C18.6354 43.0128 18.2204 42.6671 17.8173 42.3343C16.7488 41.447 15.9765 40.8075 15.9765 38.8965C15.9765 35.6492 12.2861 32.1915 10.8645 31.1319C10.2032 30.6398 9.48302 30.3794 8.78628 30.1268C7.23138 29.565 6.00194 29.1203 5.63326 26.3208C5.0339 21.7847 3.49775 20.2163 1.90743 19.165C3.23946 13.8561 6.36437 9.16746 10.8025 5.87957ZM14.1659 3.78935C17.5356 2.06417 21.1797 1.18883 24.9997 1.18883C26.7171 1.18883 28.4173 1.37473 30.0743 1.73559C28.7068 2.43702 27.9528 3.22853 27.7825 4.13616C27.6169 5.02505 28.0351 5.90925 29.0292 6.76533C29.7045 7.3475 29.8128 8.38376 29.9368 9.58248C30.1222 11.3863 30.3565 13.6301 33.006 14.5362C33.4408 14.683 33.8313 14.7575 34.1828 14.7575C34.5374 14.7575 34.852 14.683 35.1321 14.5315C35.9793 14.0748 36.2314 13.0912 36.4761 12.1387C36.8677 10.6166 37.1421 10.0079 38.2893 10.1152C39.9728 10.2777 40.9903 10.5547 41.8063 10.7776C42.6686 11.0129 43.3721 11.2004 44.3756 11.1384C46.2153 13.703 47.5297 16.6207 48.2295 19.7346C46.4054 17.9537 44.8229 18.4047 43.1675 18.877C42.765 18.9931 42.3468 19.1124 41.9068 19.2066C40.7518 19.456 40.0655 19.0348 39.2698 18.5453C38.3731 17.9954 37.3572 17.37 35.7065 17.7694C34.0016 18.1829 31.775 19.343 31.1121 21.252C30.8163 22.1071 30.7278 23.462 31.9885 25.0695C32.4498 25.6579 32.8201 26.0948 33.0893 26.412C33.4194 26.7994 33.6777 27.1056 33.7058 27.2279C33.7246 27.3149 33.6038 27.6044 33.4642 27.9419C33.2877 28.3678 33.0445 28.9531 32.7597 29.8389C31.637 33.3215 32.4483 34.0683 34.6181 36.0611C35.0451 36.4542 35.5315 36.9005 36.0798 37.4363C39.098 40.3894 39.2511 41.4022 39.4682 43.8924C35.5763 46.8793 30.7403 48.6914 25.4924 48.7982C25.4023 48.1045 25.3653 46.6751 26.1797 45.0848C27.4977 42.5155 29.0708 36.3397 28.9365 33.3002C28.8943 32.3509 28.461 31.5859 27.6805 31.0855C26.0141 30.0201 22.9434 30.3607 20.7709 31.2495C18.6401 32.1202 15.9838 30.4987 14.0451 29.3124C13.7077 29.1067 13.3885 28.913 13.0943 28.7427C12.6267 28.473 12.2861 28.0288 12.0815 27.4217C11.7237 26.3578 12.3017 25.195 13.3718 24.8295C15.9823 23.9375 16.8743 21.9212 16.2645 18.2912C16.1062 17.3528 16.4592 15.9781 17.1503 15.6125C17.7585 15.2902 18.5578 15.8646 19.1228 16.4051C20.5105 17.7309 21.8811 17.5049 22.5763 17.2523C23.801 16.8066 24.7519 15.6401 24.8852 14.4185C24.9872 13.4999 24.5957 12.6886 23.8151 12.1903C22.784 11.5321 22.3747 10.1709 21.98 8.85293C21.5343 7.36625 21.0724 5.82853 19.6138 5.52026C18.7421 5.33592 17.8439 5.39164 16.8899 5.45048C15.4995 5.53588 13.9478 5.63014 12.0091 5.03859C12.7011 4.58972 13.4213 4.17157 14.1659 3.78935ZM43.4445 9.92616C43.0207 9.87357 42.616 9.76525 42.1193 9.63039C41.2595 9.39502 40.1879 9.10236 38.4028 8.93209C36.1246 8.7165 35.6445 10.5979 35.3243 11.843C35.1352 12.5788 34.9571 13.2739 34.5666 13.4848C34.3224 13.6176 33.9256 13.5931 33.3897 13.4104C31.4604 12.7506 31.3027 11.2269 31.1199 9.46011C30.9819 8.12964 30.8392 6.75439 29.805 5.86394C29.1562 5.3052 28.8698 4.79697 28.9516 4.35435C29.0292 3.9362 29.5306 3.1124 31.9452 2.22352C33.8344 2.79788 35.6492 3.60658 37.3447 4.64075C39.7036 6.07171 41.7537 7.86511 43.4445 9.92616ZM50 24.9997C50 24.7472 50 24.4967 49.9922 24.2442C49.7396 15.7484 45.2426 8.04008 37.9628 3.62324C36.2189 2.55939 34.3531 1.72466 32.4129 1.12269C32.329 1.0977 31.8598 0.958144 31.7687 0.932107C29.5806 0.318687 27.3055 0 24.9997 0C21.0464 0 17.1128 0.944605 13.6239 2.73123C5.2198 7.03663 0 15.5688 0 24.9997C0 36.7922 8.20879 46.6996 19.2113 49.3184C19.3941 49.3631 20.1064 49.5168 20.2257 49.5397C21.7712 49.8401 23.3678 50 24.9997 50C30.3424 50 35.2946 48.3102 39.3625 45.4441C39.6942 45.2103 40.7503 44.3923 40.8476 44.3136C46.4288 39.7249 50 32.7737 50 24.9997Z"/>
</mask>
<path d="M40.5769 42.9847C40.3493 40.8383 39.889 39.5005 36.9114 36.586C36.3491 36.0382 35.857 35.5841 35.4216 35.1847C33.3247 33.258 33.0028 32.9622 33.8917 30.2029C34.1609 29.3635 34.3932 28.8047 34.5619 28.3975C35.1118 27.0733 35.0144 26.8426 33.9969 25.6439C33.7183 25.3143 33.3715 24.9055 32.9253 24.3368C32.1775 23.3844 31.9468 22.4789 32.2363 21.6426C32.7102 20.2783 34.4614 19.2946 35.9866 18.9249C37.1562 18.6427 37.8144 19.0473 38.647 19.5597C39.5328 20.1033 40.5368 20.7209 42.1578 20.3694C42.6364 20.2658 43.0732 20.1403 43.4945 20.021C45.4717 19.456 46.6751 19.1181 48.6445 22.1644C48.7284 22.8627 48.7825 23.5688 48.8028 24.2796C48.8107 24.5196 48.8106 24.7597 48.8106 24.9997C48.8106 32.1759 45.6144 38.6163 40.5769 42.9847ZM1.18883 24.9997C1.18883 23.4433 1.34244 21.9134 1.63041 20.4236C2.8786 21.3546 3.96744 22.7944 4.45329 26.4755C4.91778 29.9925 6.75752 30.658 8.38063 31.2454C9.02478 31.4792 9.63351 31.6989 10.1537 32.0858C11.6649 33.2117 14.7872 36.3584 14.7872 38.8965C14.7872 41.3663 15.9422 42.3234 17.0586 43.2498C17.4304 43.5575 17.8142 43.8767 18.1646 44.2579C18.9931 45.1603 19.2701 46.9693 19.3368 48.1243C8.93365 45.5754 1.18883 36.1772 1.18883 24.9997ZM10.8025 5.87957C13.3562 6.85854 15.3506 6.73773 16.9644 6.63827C17.8704 6.58099 18.6536 6.53308 19.3675 6.68513C20.0846 6.8351 20.4022 7.73337 20.8401 9.19506C21.277 10.6495 21.7728 12.297 23.1756 13.1922C23.5781 13.4489 23.7547 13.8176 23.7036 14.2899C23.6198 15.0533 22.9606 15.8463 22.1691 16.1359C21.6379 16.3296 20.8204 16.3837 19.944 15.5459C18.4089 14.0779 17.2742 14.2003 16.5926 14.5607C15.3678 15.21 14.8596 17.1049 15.0918 18.488C15.5985 21.5093 14.9897 23.021 12.9875 23.7036C11.2998 24.2796 10.3891 26.1177 10.9541 27.8013C11.2545 28.6917 11.7753 29.3556 12.4996 29.7722C12.7876 29.9383 13.0958 30.1268 13.4244 30.3284C15.5797 31.6463 18.5328 33.4501 21.2213 32.3509C23.0626 31.5969 25.7277 31.248 27.0394 32.0874C27.4914 32.3769 27.7237 32.7904 27.7487 33.3512C27.871 36.1231 26.324 42.1995 25.1221 44.5412C24.2192 46.3018 24.1963 47.889 24.2921 48.7919C23.0132 48.7549 21.7587 48.6169 20.5381 48.3847C20.5043 47.3099 20.2892 44.812 19.0395 43.4523C18.6354 43.0128 18.2204 42.6671 17.8173 42.3343C16.7488 41.447 15.9765 40.8075 15.9765 38.8965C15.9765 35.6492 12.2861 32.1915 10.8645 31.1319C10.2032 30.6398 9.48302 30.3794 8.78628 30.1268C7.23138 29.565 6.00194 29.1203 5.63326 26.3208C5.0339 21.7847 3.49775 20.2163 1.90743 19.165C3.23946 13.8561 6.36437 9.16746 10.8025 5.87957ZM14.1659 3.78935C17.5356 2.06417 21.1797 1.18883 24.9997 1.18883C26.7171 1.18883 28.4173 1.37473 30.0743 1.73559C28.7068 2.43702 27.9528 3.22853 27.7825 4.13616C27.6169 5.02505 28.0351 5.90925 29.0292 6.76533C29.7045 7.3475 29.8128 8.38376 29.9368 9.58248C30.1222 11.3863 30.3565 13.6301 33.006 14.5362C33.4408 14.683 33.8313 14.7575 34.1828 14.7575C34.5374 14.7575 34.852 14.683 35.1321 14.5315C35.9793 14.0748 36.2314 13.0912 36.4761 12.1387C36.8677 10.6166 37.1421 10.0079 38.2893 10.1152C39.9728 10.2777 40.9903 10.5547 41.8063 10.7776C42.6686 11.0129 43.3721 11.2004 44.3756 11.1384C46.2153 13.703 47.5297 16.6207 48.2295 19.7346C46.4054 17.9537 44.8229 18.4047 43.1675 18.877C42.765 18.9931 42.3468 19.1124 41.9068 19.2066C40.7518 19.456 40.0655 19.0348 39.2698 18.5453C38.3731 17.9954 37.3572 17.37 35.7065 17.7694C34.0016 18.1829 31.775 19.343 31.1121 21.252C30.8163 22.1071 30.7278 23.462 31.9885 25.0695C32.4498 25.6579 32.8201 26.0948 33.0893 26.412C33.4194 26.7994 33.6777 27.1056 33.7058 27.2279C33.7246 27.3149 33.6038 27.6044 33.4642 27.9419C33.2877 28.3678 33.0445 28.9531 32.7597 29.8389C31.637 33.3215 32.4483 34.0683 34.6181 36.0611C35.0451 36.4542 35.5315 36.9005 36.0798 37.4363C39.098 40.3894 39.2511 41.4022 39.4682 43.8924C35.5763 46.8793 30.7403 48.6914 25.4924 48.7982C25.4023 48.1045 25.3653 46.6751 26.1797 45.0848C27.4977 42.5155 29.0708 36.3397 28.9365 33.3002C28.8943 32.3509 28.461 31.5859 27.6805 31.0855C26.0141 30.0201 22.9434 30.3607 20.7709 31.2495C18.6401 32.1202 15.9838 30.4987 14.0451 29.3124C13.7077 29.1067 13.3885 28.913 13.0943 28.7427C12.6267 28.473 12.2861 28.0288 12.0815 27.4217C11.7237 26.3578 12.3017 25.195 13.3718 24.8295C15.9823 23.9375 16.8743 21.9212 16.2645 18.2912C16.1062 17.3528 16.4592 15.9781 17.1503 15.6125C17.7585 15.2902 18.5578 15.8646 19.1228 16.4051C20.5105 17.7309 21.8811 17.5049 22.5763 17.2523C23.801 16.8066 24.7519 15.6401 24.8852 14.4185C24.9872 13.4999 24.5957 12.6886 23.8151 12.1903C22.784 11.5321 22.3747 10.1709 21.98 8.85293C21.5343 7.36625 21.0724 5.82853 19.6138 5.52026C18.7421 5.33592 17.8439 5.39164 16.8899 5.45048C15.4995 5.53588 13.9478 5.63014 12.0091 5.03859C12.7011 4.58972 13.4213 4.17157 14.1659 3.78935ZM43.4445 9.92616C43.0207 9.87357 42.616 9.76525 42.1193 9.63039C41.2595 9.39502 40.1879 9.10236 38.4028 8.93209C36.1246 8.7165 35.6445 10.5979 35.3243 11.843C35.1352 12.5788 34.9571 13.2739 34.5666 13.4848C34.3224 13.6176 33.9256 13.5931 33.3897 13.4104C31.4604 12.7506 31.3027 11.2269 31.1199 9.46011C30.9819 8.12964 30.8392 6.75439 29.805 5.86394C29.1562 5.3052 28.8698 4.79697 28.9516 4.35435C29.0292 3.9362 29.5306 3.1124 31.9452 2.22352C33.8344 2.79788 35.6492 3.60658 37.3447 4.64075C39.7036 6.07171 41.7537 7.86511 43.4445 9.92616ZM50 24.9997C50 24.7472 50 24.4967 49.9922 24.2442C49.7396 15.7484 45.2426 8.04008 37.9628 3.62324C36.2189 2.55939 34.3531 1.72466 32.4129 1.12269C32.329 1.0977 31.8598 0.958144 31.7687 0.932107C29.5806 0.318687 27.3055 0 24.9997 0C21.0464 0 17.1128 0.944605 13.6239 2.73123C5.2198 7.03663 0 15.5688 0 24.9997C0 36.7922 8.20879 46.6996 19.2113 49.3184C19.3941 49.3631 20.1064 49.5168 20.2257 49.5397C21.7712 49.8401 23.3678 50 24.9997 50C30.3424 50 35.2946 48.3102 39.3625 45.4441C39.6942 45.2103 40.7503 44.3923 40.8476 44.3136C46.4288 39.7249 50 32.7737 50 24.9997Z" fill="white" stroke="white" stroke-width="4" mask="url(#path-1-inside-1_113_586)"/>
</svg>
